<?xml version="1.0" encoding="UTF-8"?><svg id="Layer_2" xmlns="http://www.w3.org/2000/svg" viewBox="0 0 107.94 139.74"><defs><style>.cls-1,.cls-2,.cls-3,.cls-4,.cls-5{fill-rule:evenodd;}.cls-1,.cls-6{fill:#fff;}.cls-2,.cls-7{fill:#d7006d;}.cls-3,.cls-8{fill:#f5a604;}.cls-4,.cls-9{fill:#01bbb4;}.cls-5,.cls-10{fill:#ea7509;}</style></defs><g id="Layer_1-2"><polygon class="cls-5" points="60.81 78.84 46.95 78.84 0 107.59 107.71 107.63 60.81 78.84"/><polygon class="cls-4" points="46.97 65.02 60.83 64.96 107.68 0 .14 0 46.97 65.02"/><polygon class="cls-3" points="46.95 78.84 46.97 65.02 .14 0 0 107.59 46.95 78.84"/><polygon class="cls-2" points="60.83 64.96 60.81 78.84 107.71 107.63 107.68 0 60.83 64.96"/><path class="cls-6" d="M21.78,131.89c0,1.54.29,2.64.86,3.31.57.67,1.35,1.01,2.34,1.01s1.8-.33,2.35-.99c.56-.66.83-1.84.83-3.54,0-1.43-.29-2.48-.87-3.14-.58-.66-1.37-.99-2.36-.99s-1.72.34-2.29,1.01c-.58.67-.87,1.78-.87,3.33M17.08,131.88c0-2.49.69-4.42,2.08-5.8,1.39-1.39,3.32-2.08,5.79-2.08s4.49.68,5.86,2.04c1.37,1.36,2.06,3.27,2.06,5.72,0,1.78-.3,3.24-.9,4.38-.6,1.14-1.47,2.02-2.6,2.66-1.13.63-2.55.95-4.24.95s-3.14-.27-4.27-.82c-1.12-.55-2.04-1.41-2.74-2.6-.7-1.18-1.05-2.66-1.05-4.44Z"/><polygon class="cls-6" points="95.11 124.25 107.71 124.25 107.71 127.51 99.84 127.51 99.84 129.93 107.13 129.93 107.13 133.04 99.84 133.04 99.84 136.04 107.94 136.04 107.94 139.49 95.11 139.49 95.11 124.25"/><path class="cls-6" d="M84.84,133.98v-3.17h7.28v6.48c-1.39.95-2.62,1.6-3.69,1.94-1.07.34-2.34.51-3.81.51-1.81,0-3.28-.31-4.42-.93-1.14-.61-2.02-1.53-2.65-2.75-.63-1.22-.94-2.62-.94-4.2,0-1.66.34-3.11,1.03-4.34.68-1.23,1.69-2.16,3.01-2.8,1.03-.49,2.42-.74,4.17-.74s2.94.15,3.77.46c.84.3,1.53.78,2.08,1.42.55.64.96,1.45,1.24,2.44l-4.53.82c-.19-.58-.5-1.02-.95-1.33-.45-.31-1.01-.46-1.71-.46-1.03,0-1.85.36-2.46,1.07-.61.72-.92,1.85-.92,3.4,0,1.65.31,2.82.93,3.53.62.71,1.48,1.06,2.59,1.06.52,0,1.02-.07,1.5-.23.48-.15,1.02-.41,1.64-.77v-1.43h-3.15Z"/><path class="cls-6" d="M69.6,133.68l-1.66-5.48-1.67,5.48h3.33ZM70.59,136.98h-5.33l-.77,2.51h-4.81l5.73-15.23h5.15l5.71,15.23h-4.93l-.76-2.51Z"/><polygon class="cls-6" points="35.68 124.25 40.38 124.25 40.38 135.74 47.74 135.74 47.74 139.49 35.68 139.49 35.68 124.25"/><polygon class="cls-6" points="0 124.25 4.92 124.25 8.35 135.22 11.73 124.25 16.51 124.25 10.85 139.49 5.76 139.49 0 124.25"/><polygon class="cls-1" points="56.26 139.49 56.26 127.69 60.85 127.69 60.85 124.24 46.97 124.24 46.97 127.69 51.56 127.69 51.56 139.49 56.26 139.49"/><rect class="cls-10" x="46.97" y="120.77" width="13.88" height="3.47"/><rect class="cls-8" x="46.97" y="114.71" width="13.88" height="3.47" transform="translate(-30.15 19.5) rotate(-16.09)"/><rect class="cls-7" x="52.18" y="101.46" width="3.47" height="13.88" transform="translate(-65.18 130.17) rotate(-73.91)"/><rect class="cls-9" x="46.97" y="98.52" width="13.88" height="3.47" transform="translate(-25.67 18.86) rotate(-16.08)"/></g></svg>